<svg xmlns="http://www.w3.org/2000/svg" xmlns:svg="http://www.w3.org/2000/svg" id="WORKING_ICONS" width="20" height="13.283" data-name="WORKING ICONS" version="1.1" viewBox="0 0 20 13.283"><metadata id="metadata11"/><title id="title2">direction</title><path id="path4" fill="#000" d="M 15.555556,5.5052318 A 2.2222222,2.2222222 0 1 1 17.777778,7.7274539 2.2222222,2.2222222 0 0 1 15.555556,5.5052318 Z M 6.6666667,6.6773769 h 1.1111111 v -0.0101 a 0.3973,0.3973 0 0 1 0.4193111,0.602689 L 6.7040333,10.549788 a 0.42955556,0.42955556 0 0 0 0.6928223,0.454911 L 14.444444,5.5561658 7.3968556,0.10762086 A 0.42954444,0.42954444 0 0 0 6.7040333,0.56253196 L 8.1970889,3.8423653 A 0.3973,0.3973 0 0 1 7.7777778,4.4450542 v 0.0101 H 6.6757556 l 1.333e-4,-0.022311 -0.012222,0.00203 A 6.7289667,6.7289667 0 0 0 0.0153889,11.060788 H 0 v 1.652966 a 0.56924444,0.56924444 0 0 0 0.5692556,0.569256 h 1.0837111 a 0.56924444,0.56924444 0 0 0 0.5692555,-0.569256 v -1.530833 h 0.00922 A 4.5086889,4.5086889 0 0 1 6.6634111,6.6570989" style="stroke-width:1.11111"/></svg>