<svg xmlns="http://www.w3.org/2000/svg" xmlns:svg="http://www.w3.org/2000/svg" id="WORKING_ICONS" width="20" height="13.283" data-name="WORKING ICONS" version="1.1" viewBox="0 0 20 13.283"><metadata id="metadata11"/><title id="title2">direction</title><path id="path4" fill="#000" d="M 2.2222222,7.7274438 A 2.2222222,2.2222222 0 1 1 4.4444444,5.5052216 2.2222222,2.2222222 0 0 1 2.2222222,7.7274438 Z M 13.336589,6.6570888 a 4.5086889,4.5086889 0 0 1 4.431967,4.5258222 h 0.0092 v 1.530833 A 0.56924444,0.56924444 0 0 0 18.347011,13.283 h 1.083711 A 0.56924444,0.56924444 0 0 0 20,12.713744 V 11.060778 H 19.98461 A 6.7289667,6.7289667 0 0 0 13.336389,4.4348661 l -0.01222,-0.00203 1.33e-4,0.022311 h -1.102078 v -0.0101 A 0.3973,0.3973 0 0 1 11.802911,3.842355 L 13.295967,0.56253282 A 0.42954444,0.42954444 0 0 0 12.603144,0.10762172 L 5.5555556,5.5561546 12.603144,11.0047 a 0.42955556,0.42955556 0 0 0 0.692823,-0.454911 L 11.802911,7.2699668 a 0.3973,0.3973 0 0 1 0.419311,-0.6027 v 0.0101 h 1.111111" style="stroke-width:1.11111"/></svg>