<svg xmlns="http://www.w3.org/2000/svg" xmlns:svg="http://www.w3.org/2000/svg" id="WORKING_ICONS" width="17.469" height="20" data-name="WORKING ICONS" version="1.1" viewBox="0 0 17.469 20"><metadata id="metadata11"/><title id="title2">direction</title><path id="path4" fill="#000" d="M 7.4771737,7.4918486 A 5.0663062,5.0663062 0 0 0 2.4970785,12.577407 v 6.803048 A 0.61954509,0.61954509 0 0 1 1.8775334,20 H 0.62092638 a 0.6194452,0.6194452 0 0 1 -0.6194577,-0.620307 l 0.00243,-1.876751 H 1.8684501e-5 V 12.577407 A 7.5663233,7.5663233 0 0 1 7.4774607,4.9947905 l 0.01373,-0.00228 v 0.00228 H 9.9727044 A 0.44643653,0.44643653 0 0 0 10.443874,4.3175634 L 8.7661634,0.63210535 a 0.48266885,0.48266885 0 0 1 0.778495,-0.5111853 L 17.46906,6.2661801 9.5446464,12.365794 A 0.48266885,0.48266885 0 0 1 8.7661384,11.854621 L 10.443849,8.169163 A 0.44647399,0.44647399 0 0 0 9.9726794,7.4918611 H 7.4771697 Z" style="stroke-width:1.24853"/></svg>