<svg xmlns="http://www.w3.org/2000/svg" xmlns:svg="http://www.w3.org/2000/svg" id="WORKING_ICONS" width="13.333" height="20" data-name="WORKING ICONS" version="1.1" viewBox="0 0 13.333 20"><metadata id="metadata11"/><title id="title2">direction</title><path id="path4" fill="#000" d="M 3.1381725,6.9980533 6.4147854,4.2329067 A 0.4768,0.4768 0 0 0 6.3211994,3.3567733 L 2.3893059,1.55656 A 0.51544,0.51544 0 0 1 2.6598925,0.5995333 L 13.332906,0 11.225653,10.48 a 0.51550667,0.51550667 0 0 1 -0.98584,0.13216 L 9.0155727,6.46468 a 0.47677333,0.47677333 0 0 0 -0.854,-0.21688 L 4.8972792,9.001947 a 6.9575867,6.9575867 0 0 0 -2.22,5.525333 l 0.00627,4.810227 A 0.66152,0.66152 0 0 1 2.0219592,20 H 0.67991915 A 0.66161333,0.66161333 0 0 1 0.01838585,19.338373 V 14.724 A 9.66876,9.66876 0 0 1 3.1381725,6.9980533 Z" style="stroke-width:1.33333"/></svg>