<svg xmlns="http://www.w3.org/2000/svg" xmlns:svg="http://www.w3.org/2000/svg" id="WORKING_ICONS" width="19.367" height="20.001" data-name="WORKING ICONS" version="1.1" viewBox="0 0 19.367 20.001"><metadata id="metadata11"/><title id="title2">direction</title><path id="path4" fill="#000" d="M 19.367326,7.0976168 V 19.351191 a 0.64962581,0.64962581 0 0 1 -0.649639,0.649652 h -1.28129 A 0.64962581,0.64962581 0 0 1 16.786745,19.351191 V 7.0976168 a 4.516129,4.516129 0 1 0 -9.0322583,0 v 5.1612912 h -0.011793 a 0.46138065,0.46138065 0 0 0 0.6998966,0.486941 L 12.251416,11.011978 A 0.49883871,0.49883871 0 0 1 12.7797,11.816546 L 6.4523706,20.000843 0.12495119,11.816546 a 0.49883871,0.49883871 0 0 1 0.5282839,-0.804568 L 4.4620609,12.745849 A 0.46141935,0.46141935 0 0 0 5.162048,12.258908 H 5.173777 V 7.0976168 a 7.0967744,7.0967744 0 1 1 14.193549,0 z" style="stroke-width:1.29032"/></svg>