<svg xmlns="http://www.w3.org/2000/svg" xmlns:svg="http://www.w3.org/2000/svg" id="WORKING_ICONS" width="17.469" height="20" data-name="WORKING ICONS" version="1.1" viewBox="0 0 17.469 20"><metadata id="metadata11"/><title id="title2">direction</title><path id="path4" fill="#000" d="m 9.9778638,4.9925136 0.01373,0.00228 a 7.5663193,7.5663193 0 0 1 7.4774372,7.5826124 v 4.925532 h -0.0039 l 0.0025,1.87675 a 0.61944488,0.61944488 0 0 1 -0.61952,0.620306 H 15.591523 A 0.61954476,0.61954476 0 0 1 14.971978,19.380455 V 12.577411 A 5.0663035,5.0663035 0 0 0 9.9918848,7.4918552 H 7.4963518 A 0.44647376,0.44647376 0 0 0 7.0251821,8.1691564 L 8.702892,11.8546 A 0.48266859,0.48266859 0 0 1 7.9243848,12.365773 L 0,6.2661873 7.9244098,0.12093057 A 0.48266859,0.48266859 0 0 1 8.702917,0.63210307 L 7.0251821,4.3175716 a 0.4464363,0.4464363 0 0 0 0.4711697,0.6772268 h 2.481512" style="stroke-width:1.24853"/></svg>