<svg xmlns="http://www.w3.org/2000/svg" xmlns:svg="http://www.w3.org/2000/svg" id="WORKING_ICONS" width="13.333" height="20" data-name="WORKING ICONS" version="1.1" viewBox="0 0 13.333 20"><metadata id="metadata11"/><title id="title2">direction</title><path id="path4" fill="#000" d="m 13.314533,14.724 v 4.614427 A 0.66161333,0.66161333 0 0 1 12.652987,20 h -1.34204 a 0.66152,0.66152 0 0 1 -0.661534,-0.66244 l 0.0063,-4.810227 A 6.9575867,6.9575867 0 0 0 8.4356803,9.002 L 5.171387,6.2478 A 0.47677333,0.47677333 0 0 0 4.3173867,6.46468 l -1.22428,4.147467 A 0.51550667,0.51550667 0 0 1 2.1072533,10.48 L 0,0 10.673013,0.5995333 A 0.51544,0.51544 0 0 1 10.9436,1.55656 L 7.0117073,3.3567733 a 0.4768,0.4768 0 0 0 -0.09359,0.8761334 L 10.194733,6.99804 a 9.6687733,9.6687733 0 0 1 3.1198,7.72596 z" style="stroke-width:1.33333"/></svg>