<svg xmlns="http://www.w3.org/2000/svg" xmlns:svg="http://www.w3.org/2000/svg" id="WORKING_ICONS" width="16.515" height="20" data-name="WORKING ICONS" version="1.1" viewBox="0 0 16.515 20"><metadata id="metadata11"/><title id="title2">direction</title><path id="path4" fill="#000" d="M 0,17.640774 A 2.3592266,2.3592266 0 1 1 2.3592266,20 2.3592266,2.3592266 0 0 1 0,17.640774 Z M 8.257293,7.0890497 H 9.436906 V 7.0783267 A 0.42179433,0.42179433 0 0 1 9.882069,7.7181726 L 8.296964,11.200203 A 0.45603851,0.45603851 0 0 0 9.0325,11.68316 L 16.514586,5.8987137 9.0325,0.11425569 A 0.45602671,0.45602671 0 0 0 8.296964,0.59721299 L 9.882069,4.0792427 A 0.42179433,0.42179433 0 0 1 9.436906,4.7191004 v 0.010723 H 8.266942 l 1.42e-4,-0.023687 -0.01298,0.00216 A 7.1438208,7.1438208 0 0 0 1.195951,11.742707 H 1.179613 v 1.754875 a 0.60433949,0.60433949 0 0 0 0.6043513,0.604352 h 1.150524 A 0.60433949,0.60433949 0 0 0 3.5388396,13.497582 V 11.87237 h 0.00979 A 4.7866585,4.7866585 0 0 1 8.253837,7.0675217" style="stroke-width:1.17961"/></svg>