<svg xmlns="http://www.w3.org/2000/svg" xmlns:svg="http://www.w3.org/2000/svg" id="WORKING_ICONS" width="16.515" height="20" data-name="WORKING ICONS" version="1.1" viewBox="0 0 16.515 20"><metadata id="metadata11"/><title id="title2">direction</title><path id="path4" fill="#000" d="M 14.15536,20 A 2.3592266,2.3592266 0 1 1 16.514586,17.640774 2.3592266,2.3592266 0 0 1 14.15536,20 Z M 8.260749,7.0675217 a 4.7866585,4.7866585 0 0 1 4.705207,4.8048483 h 0.0098 v 1.625212 a 0.60433949,0.60433949 0 0 0 0.604352,0.604352 h 1.150524 a 0.60433949,0.60433949 0 0 0 0.604351,-0.604352 v -1.754875 h -0.01634 A 7.1438208,7.1438208 0 0 0 8.260537,4.7082951 l -0.01298,-0.00216 8.3e-5,0.023687 H 7.07768 V 4.7191004 A 0.42179433,0.42179433 0 0 1 6.6325174,4.0792545 L 8.217623,0.59721299 A 0.45602671,0.45602671 0 0 0 7.482087,0.11425569 L 0,5.8987137 7.482087,11.683172 A 0.45603851,0.45603851 0 0 0 8.217623,11.200215 L 6.6325174,7.7181729 A 0.42179433,0.42179433 0 0 1 7.07768,7.078327 V 7.08905 h 1.179613" style="stroke-width:1.17961"/></svg>