<svg xmlns="http://www.w3.org/2000/svg" xmlns:svg="http://www.w3.org/2000/svg" id="WORKING_ICONS" width="11.112" height="20" data-name="WORKING ICONS" version="1.1" viewBox="0 0 11.112 20"><metadata id="metadata11"/><title id="title2">direction</title><path id="path4" fill="#000" d="M 5.5459876,20 A 2.2222222,2.2222222 0 1 1 7.7682098,17.777778 2.2222222,2.2222222 0 0 1 5.5459876,20 Z M 11.004699,7.0475889 5.5561538,0 0.10762067,7.0475889 a 0.42954445,0.42954445 0 0 0 0.454911,0.6928222 L 3.842354,6.2473555 a 0.39491111,0.39491111 0 0 1 0.6011111,0.410089 h -0.00859 v 6.1111775 a 0.55546667,0.55546667 0 0 0 0.5554889,0.555489 h 1.1112448 a 0.55546667,0.55546667 0 0 0 0.555489,-0.555489 V 6.6666667 h 0.01017 a 0.3973,0.3973 0 0 1 0.602701,-0.4193112 l 3.2798232,1.4930556 a 0.42955555,0.42955555 0 0 0 0.454907,-0.6928222 z" style="stroke-width:1.11111"/></svg>