<svg xmlns="http://www.w3.org/2000/svg" xmlns:svg="http://www.w3.org/2000/svg" id="WORKING_ICONS" width="18.718" height="20" data-name="WORKING ICONS" version="1.1" viewBox="0 0 18.718 20"><metadata id="metadata11"/><title id="title2">direction</title><path id="path4" fill="#000" d="m 18.097728,5.2673575 a 0.37053845,0.37053845 0 0 1 0.370138,0.3701389 V 6.894865 A 0.37053845,0.37053845 0 0 1 18.097727,7.265004 H 6.4819883 V 5.2673575 H 18.097715 m 0,-0.2497058 H 6.2322825 V 7.5147098 H 18.097728 A 0.61983225,0.61983225 0 0 0 18.717572,6.894865 V 5.6374964 A 0.61983225,0.61983225 0 0 0 18.097728,5.0176517 v 0 z M 9.9778695,4.9947911 H 7.4963557 A 0.44643653,0.44643653 0 0 1 7.0251858,4.317564 L 8.702897,0.63210609 A 0.48266885,0.48266885 0 0 0 7.9244014,0.12092079 L 0,6.2661807 7.9244139,12.365794 A 0.48266885,0.48266885 0 0 0 8.702897,11.854596 L 7.0251858,8.1691516 A 0.44647399,0.44647399 0 0 1 7.4963557,7.4918492 h 2.4955348 a 5.0663062,5.0663062 0 0 1 4.9800955,5.0855578 v 6.803048 A 0.61954509,0.61954509 0 0 0 15.591531,20 h 1.256606 a 0.6194452,0.6194452 0 0 0 0.619459,-0.620307 l -0.0024,-1.876751 h 0.0039 V 12.577407 A 7.5663233,7.5663233 0 0 0 9.9916025,4.9947911 l -0.01373,-0.00228" style="stroke-width:1.24853"/></svg>