<svg xmlns="http://www.w3.org/2000/svg" xmlns:svg="http://www.w3.org/2000/svg" id="WORKING_ICONS" width="19.966" height="20" data-name="WORKING ICONS" version="1.1" viewBox="0 0 19.966 20"><metadata id="metadata11"/><title id="title2">direction</title><path id="path4" fill="#000" d="M 13.484107,5.2673656 V 7.265011 H 0.6257499 A 0.37645628,0.37645628 0 0 1 0.2497057,6.8889793 V 5.6433974 A 0.37645628,0.37645628 0 0 1 0.6257499,5.2673656 H 13.484107 M 13.733812,5.0176599 H 0.6257499 A 0.62574995,0.62574995 0 0 0 0,5.6433974 V 6.8889793 A 0.62574995,0.62574995 0 0 0 0.6257499,7.5147167 H 13.733812 Z M 9.988227,7.4918562 h 2.481513 a 0.44647376,0.44647376 0 0 1 0.471169,0.6773012 l -1.67771,3.6854446 a 0.48266859,0.48266859 0 0 0 0.778508,0.511173 l 7.924385,-6.0995867 -7.92441,-6.14525673 a 0.48266859,0.48266859 0 0 0 -0.778508,0.5111725 l 1.67771,3.68545603 A 0.4464363,0.4464363 0 0 1 12.469715,4.9947869 H 9.988227 v -0.00227 l -0.01373,0.00228 A 7.5663193,7.5663193 0 0 0 2.4970608,12.577411 v 4.925531 h 0.00388 l -0.0025,1.87675 a 0.61944488,0.61944488 0 0 0 0.6195198,0.620306 H 4.3745688 A 0.61954476,0.61954476 0 0 0 4.9941136,19.380457 V 12.577413 A 5.0663035,5.0663035 0 0 1 9.974206,7.4918562 Z" style="stroke-width:1.24853"/></svg>