<svg xmlns="http://www.w3.org/2000/svg" xmlns:svg="http://www.w3.org/2000/svg" id="WORKING_ICONS" width="20" height="16.667" data-name="WORKING ICONS" version="1.1" viewBox="0 0 20 16.667"><metadata id="metadata11"/><title id="title2">direction</title><path id="path4" fill="#000" d="m 20,0 -1.756044,8.7333325 a 0.42958889,0.42958889 0 0 1 -0.821534,0.110134 l -1.0202,-3.4562332 A 0.39731111,0.39731111 0 0 0 15.690556,5.2065 l -2.720245,2.295122 a 5.7979889,5.7979889 0 0 0 -1.85,4.604444 l 0.0052,4.008522 A 0.55126667,0.55126667 0 0 1 10.5742,16.666666 H 9.4258 A 0.55126667,0.55126667 0 0 1 8.8745222,16.114632 l 0.00522,-4.008521 a 5.7979889,5.7979889 0 0 0 -1.85,-4.604444 L 4.3094889,5.2065 A 0.39731111,0.39731111 0 0 0 3.5978222,5.3872333 L 2.5775889,8.8434555 A 0.42958889,0.42958889 0 0 1 1.7560444,8.7333325 L 0,0 8.8941778,0.4996111 A 0.42953333,0.42953333 0 0 1 9.119667,1.2971333 L 5.8431,2.7973111 A 0.39733333,0.39733333 0 0 0 5.7651111,3.5274222 L 8.4956222,5.8317111 A 7.3784889,7.3784889 0 0 1 10,7.6572 7.3784889,7.3784889 0 0 1 11.504378,5.8317111 L 14.234889,3.5274222 A 0.39733333,0.39733333 0 0 0 14.1569,2.7973111 L 10.880333,1.2971333 a 0.42953333,0.42953333 0 0 1 0.225489,-0.7975222 z" style="stroke-width:1.11111"/></svg>