<svg xmlns="http://www.w3.org/2000/svg" xmlns:svg="http://www.w3.org/2000/svg" id="WORKING_ICONS" width="20" height="17.918" data-name="WORKING ICONS" version="1.1" viewBox="0 0 20 17.918"><metadata id="metadata11"/><title id="title2">direction</title><path id="path4" fill="#000" d="m 1.2905554,5.1406116 a 0.34068443,0.34068443 0 0 1 0.2193973,0.080336 L 3.8298776,7.1786554 A 7.8324646,7.8324646 0 0 1 6.3711238,13.492096 V 17.36335 A 0.33166872,0.33166872 0 0 1 6.0398242,17.694583 H 4.9139783 A 0.33124366,0.33124366 0 0 1 4.5826787,17.362847 l 0.00424,-4.014376 A 6.0626773,6.0626773 0 0 0 2.646,8.5206993 L 0.34467713,6.5790098 A 0.34072918,0.34072918 0 0 1 0.30695873,6.0954945 L 1.032914,5.2581403 A 0.34078511,0.34078511 0 0 1 1.2905778,5.1406116 m 0,-0.223715 A 0.56314666,0.56314666 0 0 0 0.86387493,5.1115958 l -0.7259553,0.8373541 a 0.56441065,0.56441065 0 0 0 0.062506,0.8010453 L 2.5017486,8.6916853 a 5.8369489,5.8369489 0 0 1 1.8624276,4.6354317 l -0.00521,4.035439 a 0.55500343,0.55500343 0 0 0 0.5550146,0.555742 h 1.1258459 a 0.55499225,0.55499225 0 0 0 0.554981,-0.554981 V 13.492096 A 8.111426,8.111426 0 0 0 3.9775295,7.0105561 L 1.6542489,5.0499735 A 0.56224062,0.56224062 0 0 0 1.290533,4.916863 v 0 z m 9.7701052,1.7951677 h 2.223224 a 0.40000248,0.40000248 0 0 1 0.422128,0.6068046 l -1.503086,3.3018441 a 0.43242997,0.43242997 0 0 0 0.697477,0.457967 L 20,5.6139702 12.900403,0.1083433 a 0.43242997,0.43242997 0 0 0 -0.697476,0.4579671 l 1.503085,3.3018549 a 0.39996892,0.39996892 0 0 1 -0.422128,0.6067375 h -2.223201 v -0.00204 l -0.01231,0.00205 A 6.778778,6.778778 0 0 0 4.3492321,11.26829 v 4.412857 h 0.00348 l -0.00224,1.681409 a 0.55496988,0.55496988 0 0 0 0.5550481,0.555742 h 1.1258012 a 0.55505936,0.55505936 0 0 0 0.5550594,-0.55506 V 11.26829 A 4.5389766,4.5389766 0 0 1 11.048119,6.7120643 Z" style="stroke-width:1.11858"/></svg>