<svg xmlns="http://www.w3.org/2000/svg" xmlns:svg="http://www.w3.org/2000/svg" id="WORKING_ICONS" width="20" height="19.966" data-name="WORKING ICONS" version="1.1" viewBox="0 0 20 19.966"><metadata id="metadata11"/><title id="title2">direction</title><path id="path4" fill="#000" d="M 14.732643,6.4819883 V 19.340851 A 0.37595707,0.37595707 0 0 1 14.35711,19.716409 H 13.110541 A 0.37595707,0.37595707 0 0 1 12.734996,19.340851 V 6.4819883 h 1.997647 M 14.982349,6.2322825 H 12.485291 V 19.340851 a 0.62525086,0.62525086 0 0 0 0.62525,0.625251 h 1.246544 a 0.62525086,0.62525086 0 0 0 0.625264,-0.625251 z M 15.005209,9.97787 V 7.4963557 A 0.44643653,0.44643653 0 0 1 15.682436,7.0251858 L 19.367894,8.702897 A 0.48266885,0.48266885 0 0 0 19.87908,7.9244014 L 13.73382,0 7.6342058,7.9244139 A 0.48266885,0.48266885 0 0 0 8.145379,8.702922 l 3.685458,-1.6777112 a 0.44647399,0.44647399 0 0 1 0.677302,0.4711699 V 9.991916 a 5.0663062,5.0663062 0 0 1 -5.0855464,4.98007 H 0.6195451 A 0.61954509,0.61954509 0 0 0 0,15.591531 v 1.256607 a 0.6194452,0.6194452 0 0 0 0.6203067,0.619458 l 1.8767514,-0.0024 v 0.0039 H 7.4225926 A 7.5663233,7.5663233 0 0 0 15.005209,9.991655 l 0.0023,-0.01373" style="stroke-width:1.24853"/></svg>