<svg xmlns="http://www.w3.org/2000/svg" xmlns:svg="http://www.w3.org/2000/svg" id="WORKING_ICONS" width="20" height="19.966" data-name="WORKING ICONS" version="1.1" viewBox="0 0 20 19.966"><metadata id="metadata11"/><title id="title2">direction</title><path id="path4" fill="#000" d="M 7.26501,6.4819849 V 19.344974 A 0.37181176,0.37181176 0 0 1 6.8936103,19.716386 H 5.6387643 A 0.37181176,0.37181176 0 0 1 5.2673646,19.344974 V 6.4819849 H 7.26501 M 7.5147157,6.2322792 H 5.0176589 V 19.344974 a 0.62110542,0.62110542 0 0 0 0.6211054,0.621118 h 1.254846 A 0.62110542,0.62110542 0 0 0 7.5147157,19.344974 Z M 7.4918552,9.977864 V 7.4963518 A 0.44647376,0.44647376 0 0 1 8.1691564,7.0251821 L 11.854601,8.702892 A 0.48266859,0.48266859 0 0 0 12.365774,7.9243848 L 6.2661873,0 0.12093057,7.9244098 A 0.48266859,0.48266859 0 0 0 0.63210307,8.702917 L 4.3175716,7.0251821 A 0.4464363,0.4464363 0 0 1 4.9947984,7.4963518 V 9.977864 h -0.00228 l 0.00228,0.01373 a 7.5663193,7.5663193 0 0 0 7.5826136,7.477437 h 4.925532 v -0.0039 l 1.87675,0.0025 A 0.61944488,0.61944488 0 0 0 20,16.848111 V 15.591523 A 0.61954476,0.61954476 0 0 0 19.380456,14.971978 H 12.577412 A 5.0663035,5.0663035 0 0 1 7.4918552,9.991885 Z" style="stroke-width:1.24853"/></svg>