<svg xmlns="http://www.w3.org/2000/svg" xmlns:svg="http://www.w3.org/2000/svg" id="WORKING_ICONS" width="20" height="20" data-name="WORKING ICONS" version="1.1" viewBox="0 0 20 20"><metadata id="metadata11"/><title id="title2">direction</title><path style="stroke-width:1.33234" id="path4" fill="#000" d="M 0.6817139,19.999998 A 0.6632279,0.6632279 0 0 1 0.018486,19.336744 L 0.0191122,2.7185536 a 2.8012149,2.8012149 0 0 1 0.7422892,-1.94582289 2.5705594,2.5705594 0 0 1 1.910689,-0.7579043 l 0.3519522,-0.00266 A 5.9507047,5.9507047 0 0 1 7.53371,1.6659527 l 7.184136,6.1408968 0.005,-0.0059 a 0.47640652,0.47640652 0 0 0 0.850036,-0.229243 l 1.162471,-4.1618724 a 0.51509781,0.51509781 0 0 1 0.986894,0.1175128 L 19.981514,13.967554 9.308793,13.525096 A 0.51505784,0.51505784 0 0 1 9.024417,12.572842 l 3.902131,-1.856369 A 0.46522814,0.46522814 0 0 0 13.036494,9.8747375 L 5.8481205,3.7288707 A 3.4209018,3.4209018 0 0 0 3.0559256,2.6763183 l -0.3727767,0.00846 V 19.336824 A 0.6632279,0.6632279 0 0 1 2.019921,19.999998 Z"/></svg>