<svg xmlns="http://www.w3.org/2000/svg" xmlns:svg="http://www.w3.org/2000/svg" id="WORKING_ICONS" width="12.5" height="20" data-name="WORKING ICONS" version="1.1" viewBox="0 0 12.5 20"><metadata id="metadata11"/><title id="title2">direction</title><path id="path4" fill="#000" d="M 1.878625,0.25 A 0.3718,0.3718 0 0 1 2.25,0.6214 V 19.3786 A 0.3718,0.3718 0 0 1 1.878625,19.75 H 0.621375 A 0.3718,0.3718 0 0 1 0.25,19.3786 V 0.6214 A 0.3718,0.3718 0 0 1 0.621375,0.25 h 1.25725 m 0,-0.25 H 0.621375 A 0.6213875,0.6213875 0 0 0 0,0.6214 V 19.3786 A 0.6213875,0.6213875 0 0 0 0.621375,20 h 1.25725 A 0.6213875,0.6213875 0 0 0 2.5,19.3786 V 0.6214 A 0.6213875,0.6213875 0 0 0 1.878625,0 Z m -1.861,15.05375 v 4.326025 A 0.6202625,0.6202625 0 0 0 0.6378125,20 H 1.895975 a 0.620175,0.620175 0 0 0 0.6201875,-0.621038 l -0.00587,-4.509587 a 6.5227375,6.5227375 0 0 1 2.0812495,-5.18 L 7.651767,7.1073625 a 0.446975,0.446975 0 0 1 0.800625,0.203325 L 9.60015,11.198937 A 0.4832875,0.4832875 0 0 0 10.52445,11.075 L 12.5,1.25 2.49405,1.8120625 A 0.483225,0.483225 0 0 0 2.240375,2.709275 l 3.686137,1.6877 A 0.447,0.447 0 0 1 6.01425,5.21835 L 2.942425,7.810675 a 9.0644625,9.0644625 0 0 0 -2.9248,7.243075 z" style="stroke-width:1.25"/></svg>