<svg xmlns="http://www.w3.org/2000/svg" xmlns:svg="http://www.w3.org/2000/svg" id="WORKING_ICONS" width="17.469" height="20" data-name="WORKING ICONS" version="1.1" viewBox="0 0 17.469 20"><metadata id="metadata11"/><title id="title2">direction</title><path id="path4" fill="#000" d="m 16.847413,0.27325624 a 0.37136219,0.37136219 0 0 1 0.370938,0.3709627 V 19.379332 a 0.37136219,0.37136219 0 0 1 -0.370938,0.370963 H 15.591644 A 0.37136219,0.37136219 0 0 1 15.220706,19.379332 V 0.64421894 a 0.37136219,0.37136219 0 0 1 0.370938,-0.3709627 h 1.255769 m 0,-0.2497056 H 15.591644 A 0.6206558,0.6206558 0 0 0 14.971,0.64421894 V 19.379332 A 0.6206558,0.6206558 0 0 0 15.591644,20 h 1.255769 a 0.6206558,0.6206558 0 0 0 0.620644,-0.620668 V 0.64421894 A 0.6206558,0.6206558 0 0 0 16.847413,0.02355064 Z M 9.9778623,4.9948025 H 7.4963499 A 0.44643619,0.44643619 0 0 1 7.0251804,4.3175759 L 8.70289,0.63212074 A 0.48266847,0.48266847 0 0 0 7.9243828,0.12093584 L 0,6.2661911 7.9244078,12.3658 A 0.48266847,0.48266847 0 0 0 8.70289,11.854603 L 7.0251804,8.1691598 A 0.44647364,0.44647364 0 0 1 7.4963499,7.4918587 h 2.4955204 a 5.0663022,5.0663022 0 0 1 4.9800917,5.0855543 v 6.803043 A 0.61954461,0.61954461 0 0 0 15.591519,20 h 1.256606 a 0.61944472,0.61944472 0 0 0 0.619457,-0.620306 l -0.0024,-1.87675 h 0.0039 V 12.577413 A 7.5663174,7.5663174 0 0 0 9.9915833,4.9948025 l -0.01373,-0.00228" style="stroke-width:1.24853"/></svg>