<svg xmlns="http://www.w3.org/2000/svg" xmlns:svg="http://www.w3.org/2000/svg" id="WORKING_ICONS" width="17.479" height="20" data-name="WORKING ICONS" version="1.1" viewBox="0 0 17.479 20"><metadata id="metadata11"/><title id="title2">direction</title><path id="path4" fill="#000" d="m 1.8764133,0.27325207 a 0.37136229,0.37136229 0 0 1 0.3709378,0.3709628 V 19.379332 A 0.37136229,0.37136229 0 0 1 1.8764133,19.750295 H 0.6206435 A 0.37136229,0.37136229 0 0 1 0.2497057,19.379332 V 0.64421487 a 0.37136229,0.37136229 0 0 1 0.3709378,-0.3709628 h 1.2557698 m 0,-0.2497057 H 0.6206435 A 0.62065595,0.62065595 0 0 0 0,0.64421487 V 19.379332 A 0.62065595,0.62065595 0 0 0 0.6206435,20 H 1.8764133 A 0.62065595,0.62065595 0 0 0 2.4970568,19.379332 V 0.64421487 A 0.62065595,0.62065595 0 0 0 1.8764133,0.02354637 Z M 7.501533,7.4918562 h 2.481513 a 0.44647376,0.44647376 0 0 1 0.471169,0.6773012 l -1.67771,3.6854436 a 0.48266859,0.48266859 0 0 0 0.778508,0.511173 L 17.479398,6.2661883 9.554988,0.12093157 A 0.48266859,0.48266859 0 0 0 8.77648,0.63210407 L 10.45419,4.3175601 A 0.4464363,0.4464363 0 0 1 9.983021,4.9947869 H 7.501533 v -0.00227 l -0.01373,0.00228 A 7.5663193,7.5663193 0 0 0 0.0103668,12.577409 v 4.925532 h 0.00388 l -0.0025,1.87675 A 0.61944488,0.61944488 0 0 0 0.631279,19.999997 H 1.8878748 A 0.61954476,0.61954476 0 0 0 2.5074196,19.380456 V 12.577412 A 5.0663035,5.0663035 0 0 1 7.487512,7.4918562 Z" style="stroke-width:1.24853"/></svg>