<svg xmlns="http://www.w3.org/2000/svg" xmlns:svg="http://www.w3.org/2000/svg" id="WORKING_ICONS" width="20" height="14.667" data-name="WORKING ICONS" version="1.1" viewBox="0 0 20 14.667"><metadata id="metadata11"/><title id="title2">direction</title><path id="path4" fill="#000" d="M 14.666661,0.2666666 A 5.0666648,5.0666648 0 1 1 9.599996,5.333331 5.0723714,5.0723714 0 0 1 14.666661,0.2666666 m 0,9.3333299 A 4.2666651,4.2666651 0 1 0 10.399996,5.333331 4.2715051,4.2715051 0 0 0 14.666661,9.5999965 M 14.666661,0 A 5.3333313,5.3333313 0 1 0 19.999993,5.333331 5.339438,5.339438 0 0 0 14.666661,0 Z m 0,9.3333305 A 3.9999985,3.9999985 0 1 1 18.66666,5.333331 4.0043718,4.0043718 0 0 1 14.666661,9.3333305 Z M 18.43814,1.5624928 A 5.3753313,5.3753313 0 0 0 17.715473,0.956373 5.4373313,5.4373313 0 0 0 10.895809,1.5618394 5.2912247,5.2912247 0 0 0 9.374343,4.666665 H 3.9999985 A 0.23838658,0.23838658 0 0 1 3.7484519,4.305012 L 4.6442916,2.3371591 A 0.25773324,0.25773324 0 0 0 4.2285984,2.0642126 L 0,5.333331 4.2285984,8.6024495 A 0.25773324,0.25773324 0 0 0 4.6442916,8.3295035 L 3.7484519,6.361651 A 0.23838658,0.23838658 0 0 1 3.9999985,5.999998 H 10.666663 V 5.333331 a 3.9741719,3.9741719 0 0 1 1.171879,-2.8287719 4.0811718,4.0811718 0 0 1 5.113932,-0.4544265 4.0299718,4.0299718 0 0 1 0.542973,0.4550798 3.9996785,3.9996785 0 0 1 -2.828786,6.8281181 h -0.666666 v 5.3333315 h 1.333333 V 10.625648 A 5.333838,5.333838 0 0 0 18.43814,1.5624928 Z" style="stroke-width:1.33333"/></svg>