<svg xmlns="http://www.w3.org/2000/svg" xmlns:svg="http://www.w3.org/2000/svg" id="WORKING_ICONS" width="16.037" height="20" data-name="WORKING ICONS" version="1.1" viewBox="0 0 16.037 20"><metadata id="metadata11"/><title id="title2">direction</title><path id="path4" fill="#000" d="M 5.3203227,5.6628325 A 5.0543072,5.0543072 0 1 1 0.2660159,10.71714 5.0599999,5.0599999 0 0 1 5.3203227,5.6628325 m 0,9.3105655 A 4.2562587,4.2562587 0 1 0 1.0640644,10.71714 4.2610869,4.2610869 0 0 0 5.3203227,14.973398 m 0,-9.5765817 A 5.3203234,5.3203234 0 1 0 10.640647,10.71714 5.3264151,5.3264151 0 0 0 5.3203227,5.3968163 Z m 0,9.3105657 A 3.9902425,3.9902425 0 1 1 9.3105658,10.71714 3.9946052,3.9946052 0 0 1 5.3203227,14.707382 Z M 10.748636,0.6767185 a 0.25707803,0.25707803 0 0 0 -0.100661,0.4857057 l 2.020047,0.7562839 a 0.23779185,0.23779185 0 0 1 0.07761,0.4325423 l 7.9e-5,7.98e-5 L 7.6713327,7.425708 8.1415438,7.895919 A 3.9899233,3.9899233 0 0 1 5.3203097,14.707382 H 4.6552693 V 20 H 5.9853497 V 15.99655 A 5.3219594,5.3219594 0 0 0 9.5235778,7.454292 L 13.686159,3.2917506 a 0.23779185,0.23779185 0 0 1 0.432543,0.07761 l 0.756151,2.020047 A 0.25713123,0.25713123 0 0 0 15.360638,5.2886674 L 16.03737,0 Z" style="stroke-width:1.33008"/></svg>