<svg xmlns="http://www.w3.org/2000/svg" xmlns:svg="http://www.w3.org/2000/svg" id="WORKING_ICONS" width="20" height="14.658" data-name="WORKING ICONS" version="1.1" viewBox="0 0 20 14.658"><metadata id="metadata11"/><title id="title2">direction</title><path id="path4" fill="#000" d="M 5.3300781,0.2665039 A 5.0635745,5.0635745 0 1 1 0.2665036,5.330078 5.0692777,5.0692777 0 0 1 5.3300781,0.2665039 m 0,9.3276371 A 4.2640627,4.2640627 0 1 0 1.0660154,5.330078 4.2688998,4.2688998 0 0 0 5.3300781,9.594141 M 5.3300781,0 A 5.3300784,5.3300784 0 1 0 10.660157,5.330078 5.3361814,5.3361814 0 0 0 5.3300781,0 Z m 0,9.327637 A 3.9975588,3.9975588 0 1 1 9.3276367,5.330078 4.0019295,4.0019295 0 0 1 5.3300781,9.327637 Z M 15.774061,2.0629536 a 0.25757604,0.25757604 0 0 0 -0.41544,0.27278 L 16.253914,4.302386 A 0.23826783,0.23826783 0 0 1 16.002441,4.663819 H 9.3276367 V 5.330078 A 3.9974789,3.9974789 0 0 1 5.3300781,9.327637 H 4.6638183 v 5.330079 H 5.9963379 V 10.619169 A 5.3343425,5.3343425 0 0 0 10.619169,5.996338 h 5.383272 a 0.23826783,0.23826783 0 0 1 0.251473,0.361433 l -0.895293,1.966652 a 0.25757604,0.25757604 0 0 0 0.41544,0.27278 L 20,5.330078 Z" style="stroke-width:1.33252"/></svg>