<svg xmlns="http://www.w3.org/2000/svg" xmlns:svg="http://www.w3.org/2000/svg" id="WORKING_ICONS" width="11.117" height="20" data-name="WORKING ICONS" version="1.1" viewBox="0 0 11.117 20"><metadata id="metadata11"/><title id="title2">direction</title><path id="path4" fill="#000" d="M 11.009776,12.94916 5.5587285,20 0.10767062,12.94916 a 0.4297426,0.4297426 0 0 1 0.455121,-0.693142 l 3.28133528,1.493744 a 0.39748328,0.39748328 0 0 0 0.602978,-0.419504 V 6.6697422 A 0.39748328,0.39748328 0 0 0 3.844138,6.2502376 L 0.56279162,7.7439819 A 0.4297426,0.4297426 0 0 1 0.10767062,7.0508401 L 5.5587285,0 11.009787,7.0508401 A 0.42975372,0.42975372 0 0 1 10.554666,7.7439819 L 7.2733075,6.2502376 a 0.39748328,0.39748328 0 0 0 -0.602967,0.4195046 v 6.6605158 a 0.39748328,0.39748328 0 0 0 0.602967,0.419504 l 3.2813355,-1.493744 a 0.42975372,0.42975372 0 0 1 0.455133,0.693142 z" style="stroke-width:1.11162"/></svg>