<svg xmlns="http://www.w3.org/2000/svg" xmlns:svg="http://www.w3.org/2000/svg" id="svg2418" width="110.499" height="150.242" version="1.1" viewBox="0 0 29.236 39.752"><g id="layer1" transform="translate(-91.35232,-110.1768)"><rect style="display:none;opacity:1;fill:#fff;fill-opacity:1;stroke:#4d4d4d;stroke-width:0" id="rect2129" width="29.236" height="39.752" x="91.352" y="110.177"/><g id="g32004" style="display:none;stroke:none" transform="translate(75.060638,-5.5438717)"><g id="g13016" style="display:inline;fill:#6f2d00;fill-opacity:1;stroke:none" transform="matrix(1.1631294,0,0,1.1631294,-5.0422885,-22.11978)"><path id="path5716" style="fill:#6f2d00;fill-opacity:1;stroke:none;stroke-width:2.34917;stroke-linecap:round" d="M 116.82422,535.70898 102.4375,542.5 l -14.386719,6.78906 14.386719,6.78906 11,5.19141 v 15.80664 h 3.38672 v -14.20703 -3.93555 -9.64453 z" transform="scale(0.26458333)"/><path style="fill:#6f2d00;fill-opacity:1;stroke:none;stroke-width:.264583px;stroke-linecap:butt;stroke-linejoin:miter;stroke-opacity:1" id="path5936" d="m 18.341872,136.77692 3.331558,7.57837 7.029221,-3.22172 z"/><path style="fill:#6f2d00;fill-opacity:1;stroke:none;stroke-width:1.51181;stroke-linecap:round" id="path7773" d="m 123.99592,514.59965 -11.02441,-6.36495 -11.02441,-6.36495 11.02441,-6.36495 11.02442,-6.36494 0,12.72989 z" transform="matrix(0.39243637,0,0,0.31059853,-17.750778,-19.228227)"/><path style="fill:#6f2d00;fill-opacity:1;stroke:none;stroke-width:1.51181;stroke-linecap:round" id="path7877" d="m 123.99592,514.59965 -11.02441,-6.36495 -11.02441,-6.36495 11.02441,-6.36495 11.02442,-6.36494 0,12.72989 z" transform="matrix(-0.3940968,0,0,-0.29190487,69.062729,278.57074)"/><path style="fill:#6f2d00;fill-opacity:1;stroke:none;stroke-width:1.51181;stroke-linecap:round" id="path7929" d="m 123.99592,514.59965 -11.02441,-6.36495 -11.02441,-6.36495 11.02441,-6.36495 11.02442,-6.36494 0,12.72989 z" transform="matrix(0.34926521,0,0,0.27033526,-12.397729,-7.5515591)"/><path style="fill:#6f2d00;fill-opacity:1;stroke:none;stroke-width:.264583px;stroke-linecap:butt;stroke-linejoin:miter;stroke-opacity:1" id="path7964" d="m 24.903849,122.34368 -1.378447,3.99721 5.0395,-2.31516 z"/><path style="fill:#6f2d00;fill-opacity:1;stroke:none;stroke-width:.264583px;stroke-linecap:butt;stroke-linejoin:miter;stroke-opacity:1" id="path11445" d="m 30.909733,118.50827 v 4.63122 l -3.122345,-1.29967 z"/></g><g id="g13032" transform="matrix(-1.1631294,0,0,1.1631294,66.861771,-22.11978)" style="fill:#de5a00;fill-opacity:1;stroke:none"><path id="path13018" style="fill:#de5a00;fill-opacity:1;stroke:none;stroke-width:2.34917;stroke-linecap:round" d="M 116.82422,535.70898 102.4375,542.5 l -14.386719,6.78906 14.386719,6.78906 11,5.19141 v 15.80664 h 3.38672 v -14.20703 -3.93555 -9.64453 z" transform="scale(0.26458333)"/><path style="fill:#de5a00;fill-opacity:1;stroke:none;stroke-width:.264583px;stroke-linecap:butt;stroke-linejoin:miter;stroke-opacity:1" id="path13020" d="m 18.341872,136.77692 3.331558,7.57837 7.029221,-3.22172 z"/><path style="fill:#de5a00;fill-opacity:1;stroke:none;stroke-width:1.51181;stroke-linecap:round" id="path13022" d="m 123.99592,514.59965 -11.02441,-6.36495 -11.02441,-6.36495 11.02441,-6.36495 11.02442,-6.36494 0,12.72989 z" transform="matrix(0.39243637,0,0,0.31059853,-17.750778,-19.228227)"/><path style="fill:#de5a00;fill-opacity:1;stroke:none;stroke-width:1.51181;stroke-linecap:round" id="path13024" d="m 123.99592,514.59965 -11.02441,-6.36495 -11.02441,-6.36495 11.02441,-6.36495 11.02442,-6.36494 0,12.72989 z" transform="matrix(-0.3940968,0,0,-0.29190487,69.062729,278.57074)"/><path style="fill:#de5a00;fill-opacity:1;stroke:none;stroke-width:1.51181;stroke-linecap:round" id="path13026" d="m 123.99592,514.59965 -11.02441,-6.36495 -11.02441,-6.36495 11.02441,-6.36495 11.02442,-6.36494 0,12.72989 z" transform="matrix(0.34926521,0,0,0.27033526,-12.397729,-7.5515591)"/><path style="fill:#de5a00;fill-opacity:1;stroke:none;stroke-width:.264583px;stroke-linecap:butt;stroke-linejoin:miter;stroke-opacity:1" id="path13028" d="m 24.903849,122.34368 -1.378447,3.99721 5.0395,-2.31516 z"/><path style="fill:#de5a00;fill-opacity:1;stroke:none;stroke-width:.264583px;stroke-linecap:butt;stroke-linejoin:miter;stroke-opacity:1" id="path13030" d="m 30.909733,118.50827 v 4.63122 l -3.122345,-1.29967 z"/></g></g><g id="g972" style="display:inline;stroke:none" transform="translate(75.060638,-5.5438717)"><path id="path952" style="fill:#0f0f0f;fill-opacity:1;stroke:none;stroke-width:.307744px;stroke-linecap:butt;stroke-linejoin:miter;stroke-opacity:1" d="m 30.909731,115.72067 v 5.38671 l -3.631692,-1.51168 z m -6.985621,4.46108 -1.603312,4.64927 5.861591,-2.69283 z m 6.98562,10.72311 -4.478564,-2.00136 -4.478563,-2.00136 4.478563,-2.00136 4.478568,-2.00137 v 4.00273 z m -12.461069,-3.7293 5.05343,2.16104 5.053431,2.16105 -5.053431,2.16105 -5.053434,2.16104 v -4.32209 z m 12.461067,14.24725 -5.032139,-2.29945 -5.032139,-2.29944 5.032139,-2.29943 5.032144,-2.29945 v 4.59888 z m -14.618046,-4.45333 3.875033,8.81462 8.175894,-3.74728 z m 14.618058,5.77232 -4.427436,2.0899 -4.427436,2.08929 4.427436,2.0893 3.385191,1.59762 v 4.86441 h 1.042245 v -4.37214 -1.21114 -2.96805 z"/><path id="path968" style="fill:#575757;fill-opacity:1;stroke:none;stroke-width:.307744px;stroke-linecap:butt;stroke-linejoin:miter;stroke-opacity:1" d="m 30.909752,115.72067 v 5.38671 l 3.631691,-1.51168 z m 6.98562,4.46108 1.603312,4.64927 -5.86159,-2.69283 z m -6.985619,10.72311 4.478564,-2.00136 4.478563,-2.00136 -4.478563,-2.00136 -4.478568,-2.00136 v 4.00272 z m 12.461067,-3.72931 -5.05343,2.16105 -5.05343,2.16105 5.05343,2.16104 5.053435,2.16105 v -4.32209 z m -12.461065,14.24726 5.032139,-2.29945 5.032139,-2.29944 -5.032139,-2.29944 -5.032144,-2.29944 v 4.59888 z m 14.618045,-4.45333 -3.875033,8.81462 -8.175893,-3.74728 z m -14.618058,5.77231 4.427436,2.0899 4.427436,2.0893 -4.427436,2.0893 -3.385191,1.59763 v 4.8644 h -1.042245 v -4.37213 -1.21115 -2.96805 z"/></g></g></svg>