<svg xmlns="http://www.w3.org/2000/svg" xmlns:svg="http://www.w3.org/2000/svg" id="WORKING_ICONS" width="20" height="20" data-name="WORKING ICONS" version="1.1" viewBox="0 0 20 20"><metadata id="metadata11"/><title id="title2">direction</title><path style="stroke-width:1.11111" id="path4" fill="#000" d="M 2.2222222,11.085944 A 2.2222222,2.2222222 0 1 1 4.4444444,8.8637218 2.2222222,2.2222222 0 0 1 2.2222222,11.085944 Z M 13.336589,10.015589 a 4.5086889,4.5086889 0 0 1 4.431967,4.525822 h 0.0092 v 1.530833 a 0.56924444,0.56924444 0 0 0 0.569255,0.569256 h 1.083711 A 0.56924444,0.56924444 0 0 0 20,16.072244 V 14.419278 H 19.98461 A 6.7289667,6.7289667 0 0 0 13.336389,7.7933663 l -0.01222,-0.00203 1.33e-4,0.022311 h -1.102078 v -0.0101 A 0.3973,0.3973 0 0 1 11.802911,7.2008552 L 13.295967,3.921033 A 0.42954444,0.42954444 0 0 0 12.603144,3.4661219 L 5.5555556,8.9146548 12.603144,14.3632 a 0.42955556,0.42955556 0 0 0 0.692823,-0.454911 l -1.493056,-3.279822 a 0.3973,0.3973 0 0 1 0.419311,-0.6027 v 0.0101 h 1.111111"/></svg>