<svg xmlns="http://www.w3.org/2000/svg" xmlns:svg="http://www.w3.org/2000/svg" id="WORKING_ICONS" width="20" height="20" data-name="WORKING ICONS" version="1.1" viewBox="0 0 20 20"><metadata id="metadata11"/><title id="title2">direction</title><path style="stroke-width:1.11111" id="path4" fill="#000" d="M 9.9898459,4.4444444 A 2.2222222,2.2222222 0 1 1 12.212068,2.2222222 2.2222222,2.2222222 0 0 1 9.9898459,4.4444444 Z M 15.448557,13.723489 10.000024,6.6758889 4.551479,13.723489 a 0.42954444,0.42954444 0 0 0 0.4549111,0.692822 l 3.2798222,-1.493055 a 0.39491111,0.39491111 0 0 1 0.6010667,0.410077 h -0.00854 v 6.111178 A 0.55546667,0.55546667 0 0 0 9.4342234,20 h 1.1112446 a 0.55546667,0.55546667 0 0 0 0.555489,-0.555489 v -6.101955 h 0.01018 a 0.3973,0.3973 0 0 1 0.602689,-0.419312 l 3.279822,1.493056 a 0.42955556,0.42955556 0 0 0 0.454911,-0.692811 z"/></svg>