<svg xmlns="http://www.w3.org/2000/svg" xmlns:svg="http://www.w3.org/2000/svg" id="WORKING_ICONS" width="20" height="20" data-name="WORKING ICONS" version="1.1" viewBox="0 0 20 20"><metadata id="metadata11"/><title id="title2">direction</title><path style="stroke-width:1.05409" id="path4" fill="#000" d="m 9.990842,4.4444444 a 2,2.2222222 0 1 1 2,-2.2222222 2,2.2222222 0 0 1 -2,2.2222222 z m 4.91284,9.2790446 -4.90368,-7.0476001 -4.90369,7.0476001 a 0.38659,0.42954444 0 0 0 0.40942,0.692822 l 2.95184,-1.493055 a 0.35542,0.39491111 0 0 1 0.54096,0.410077 h -0.00769 v 6.111178 A 0.49992,0.55546667 0 0 0 9.490782,20 h 1.00012 a 0.49992,0.55546667 0 0 0 0.49994,-0.555489 v -6.101955 h 0.0092 a 0.35757,0.3973 0 0 1 0.54242,-0.419312 l 2.95184,1.493056 a 0.3866,0.42955556 0 0 0 0.40942,-0.692811 z"/></svg>