<svg xmlns="http://www.w3.org/2000/svg" xmlns:svg="http://www.w3.org/2000/svg" id="WORKING_ICONS" width="20" height="20" data-name="WORKING ICONS" version="1.1" viewBox="0 0 20 20"><metadata id="metadata11"/><title id="title2">direction</title><path style="stroke-width:1.33314" id="path4" fill="#000" d="M 19.805919,2.0792199 12.353764,9.531375 a 0.6627435,0.6627435 0 0 0 0,0.937197 l 7.452155,7.452155 a 0.6627435,0.6627435 0 0 1 0,0.937197 l -0.947862,0.947862 a 0.6627435,0.6627435 0 0 1 -0.937197,0 l -7.452155,-7.452155 a 0.6627435,0.6627435 0 0 0 -0.9371971,0 l -7.4522881,7.452288 a 0.6627435,0.6627435 0 0 1 -0.9371968,0 L 0.194161,18.858057 a 0.6627435,0.6627435 0 0 1 0,-0.937197 l 7.4521549,-7.452155 a 0.6627435,0.6627435 0 0 0 0,-0.937197 L 0.194081,2.0792199 a 0.6627435,0.6627435 0 0 1 0,-0.9371968 l 0.947862,-0.947862 a 0.6627435,0.6627435 0 0 1 0.9371968,0 L 9.5313749,7.646236 a 0.6627435,0.6627435 0 0 0 0.9371971,0 l 7.452155,-7.4521549 a 0.6627435,0.6627435 0 0 1 0.937197,0 l 0.947862,0.947862 a 0.6627435,0.6627435 0 0 1 1.33e-4,0.9372768 z"/></svg>