<svg xmlns="http://www.w3.org/2000/svg" xmlns:svg="http://www.w3.org/2000/svg" id="WORKING_ICONS" width="20" height="20" data-name="WORKING ICONS" version="1.1" viewBox="0 0 20 20"><metadata id="metadata11"/><title id="title2">direction</title><path style="stroke-width:1.33333" id="path4" fill="#000" d="m 16.648074,14.724 v 4.614427 A 0.66161333,0.66161333 0 0 1 15.986528,20 h -1.34204 a 0.66152,0.66152 0 0 1 -0.661534,-0.66244 l 0.0063,-4.810227 A 6.9575867,6.9575867 0 0 0 11.769221,9.002 L 8.5049277,6.2478 A 0.47677333,0.47677333 0 0 0 7.6509274,6.46468 l -1.22428,4.147467 A 0.51550667,0.51550667 0 0 1 5.440794,10.48 L 3.3335407,0 14.006554,0.5995333 A 0.51544,0.51544 0 0 1 14.277141,1.55656 l -3.931893,1.8002133 a 0.4768,0.4768 0 0 0 -0.09359,0.8761334 L 13.528274,6.99804 a 9.6687733,9.6687733 0 0 1 3.1198,7.72596 z"/></svg>