<svg xmlns="http://www.w3.org/2000/svg" xmlns:svg="http://www.w3.org/2000/svg" id="WORKING_ICONS" width="20" height="20" data-name="WORKING ICONS" version="1.1" viewBox="0 0 20 20"><metadata id="metadata11"/><title id="title2">direction</title><path style="stroke-width:1.29032" id="path4" fill="#000" d="M 19.683663,7.0967743 V 19.350348 A 0.64962581,0.64962581 0 0 1 19.034024,20 h -1.28129 A 0.64962581,0.64962581 0 0 1 17.103082,19.350348 V 7.0967743 a 4.516129,4.516129 0 1 0 -9.032258,0 V 12.258065 H 8.059031 a 0.46138065,0.46138065 0 0 0 0.6998966,0.486941 l 3.8088254,-1.733871 a 0.49883871,0.49883871 0 0 1 0.528284,0.804568 L 6.7687079,20 0.44128852,11.815703 a 0.49883871,0.49883871 0 0 1 0.5282839,-0.804568 l 3.80882578,1.733871 a 0.46141935,0.46141935 0 0 0 0.6999871,-0.486941 h 0.011729 V 7.0967743 a 7.0967744,7.0967744 0 1 1 14.1935487,0 z"/></svg>