<svg xmlns="http://www.w3.org/2000/svg" xmlns:svg="http://www.w3.org/2000/svg" id="WORKING_ICONS" width="20" height="20" data-name="WORKING ICONS" version="1.1" viewBox="0 0 20 20"><metadata id="metadata11"/><title id="title2">direction</title><path style="stroke-width:1.17961" id="path4" fill="#000" d="M 1.742707,17.640774 A 2.3592266,2.3592266 0 1 1 4.1019336,20 2.3592266,2.3592266 0 0 1 1.742707,17.640774 Z M 10,7.0890499 h 1.179613 v -0.010723 a 0.42179433,0.42179433 0 0 1 0.445163,0.6398459 l -1.585105,3.4820302 a 0.45603851,0.45603851 0 0 0 0.735536,0.482957 L 18.257293,5.8987139 10.775207,0.11425589 a 0.45602671,0.45602671 0 0 0 -0.735536,0.4829573 l 1.585105,3.48202971 a 0.42179433,0.42179433 0 0 1 -0.445163,0.6398577 v 0.010723 h -1.169964 l 1.42e-4,-0.023687 -0.01298,0.00216 A 7.1438208,7.1438208 0 0 0 2.938658,11.742707 H 2.92232 v 1.754875 a 0.60433949,0.60433949 0 0 0 0.6043513,0.604352 h 1.150524 A 0.60433949,0.60433949 0 0 0 5.2815466,13.497582 V 11.87237 h 0.00979 A 4.7866585,4.7866585 0 0 1 9.996544,7.0675219"/></svg>