<svg xmlns="http://www.w3.org/2000/svg" xmlns:svg="http://www.w3.org/2000/svg" id="WORKING_ICONS" width="20" height="20" data-name="WORKING ICONS" version="1.1" viewBox="0 0 20 20"><metadata id="metadata11"/><title id="title2">direction</title><path style="stroke-width:1.11111" id="path4" fill="#000" d="M 9.9898405,20 A 2.2222222,2.2222222 0 1 1 12.212062,17.777778 2.2222222,2.2222222 0 0 1 9.9898405,20 Z M 15.448551,7.0475889 10.000018,0 4.5514736,7.0475889 A 0.42954444,0.42954444 0 0 0 5.0063847,7.7404111 L 8.286218,6.2473556 a 0.39491111,0.39491111 0 0 1 0.6011111,0.4100888 h -0.0086 v 6.1111776 a 0.55546667,0.55546667 0 0 0 0.5554889,0.555489 h 1.111244 a 0.55546667,0.55546667 0 0 0 0.555489,-0.555489 V 6.6666667 h 0.01018 A 0.3973,0.3973 0 0 1 11.71382,6.2473556 l 3.279822,1.4930555 a 0.42955556,0.42955556 0 0 0 0.454909,-0.6928222 z"/></svg>