<svg xmlns="http://www.w3.org/2000/svg" xmlns:svg="http://www.w3.org/2000/svg" id="WORKING_ICONS" width="20" height="20" data-name="WORKING ICONS" version="1.1" viewBox="0 0 20 20"><metadata id="metadata11"/><title id="title2">direction</title><path style="stroke-width:1.24853" id="path4" fill="#000" d="m 18.738941,5.2673572 a 0.37053845,0.37053845 0 0 1 0.370139,0.3701389 v 1.2573686 a 0.37053845,0.37053845 0 0 1 -0.370139,0.370139 H 7.1232018 V 5.2673572 H 18.738929 m 0,-0.2497058 H 6.873496 V 7.5147095 H 18.738941 A 0.61983225,0.61983225 0 0 0 19.358786,6.8948647 V 5.6374961 A 0.61983225,0.61983225 0 0 0 18.738941,5.0176514 v 0 z M 10.619083,4.9947908 H 8.1375692 A 0.44643653,0.44643653 0 0 1 7.6663993,4.3175637 L 9.3441105,0.63210575 A 0.48266885,0.48266885 0 0 0 8.5656149,0.12092045 L 0.6412135,6.2661804 8.5656274,12.365794 A 0.48266885,0.48266885 0 0 0 9.3441105,11.854596 L 7.6663993,8.1691513 A 0.44647399,0.44647399 0 0 1 8.1375692,7.4918489 h 2.4955348 a 5.0663062,5.0663062 0 0 1 4.980095,5.0855581 v 6.803048 A 0.61954509,0.61954509 0 0 0 16.232744,20 h 1.256607 a 0.6194452,0.6194452 0 0 0 0.619458,-0.620307 l -0.0024,-1.876751 h 0.0039 V 12.577407 A 7.5663233,7.5663233 0 0 0 10.632816,4.9947908 l -0.01373,-0.00228"/></svg>