<svg xmlns="http://www.w3.org/2000/svg" xmlns:svg="http://www.w3.org/2000/svg" id="WORKING_ICONS" width="20" height="20" data-name="WORKING ICONS" version="1.1" viewBox="0 0 20 20"><metadata id="metadata11"/><title id="title2">direction</title><path style="stroke-width:1.24853" id="path4" fill="#000" d="M 13.501061,5.2673669 V 7.2650123 H 0.6427039 A 0.37645628,0.37645628 0 0 1 0.2666597,6.8889806 V 5.6433987 A 0.37645628,0.37645628 0 0 1 0.6427039,5.2673669 H 13.501061 M 13.750766,5.0176612 H 0.6427039 A 0.62574995,0.62574995 0 0 0 0.016954,5.6433987 V 6.8889806 A 0.62574995,0.62574995 0 0 0 0.6427039,7.514718 H 13.750766 Z m -3.745585,2.4741963 h 2.481513 a 0.44647376,0.44647376 0 0 1 0.471169,0.6773012 l -1.67771,3.6854443 a 0.48266859,0.48266859 0 0 0 0.778508,0.511173 l 7.924385,-6.0995864 -7.92441,-6.14525677 a 0.48266859,0.48266859 0 0 0 -0.778508,0.5111725 l 1.67771,3.68545607 a 0.4464363,0.4464363 0 0 1 -0.471169,0.6772268 h -2.481488 v -0.00227 l -0.01373,0.00228 A 7.5663193,7.5663193 0 0 0 2.5140148,12.577412 v 4.925531 h 0.00388 l -0.0025,1.87675 a 0.61944488,0.61944488 0 0 0 0.6195198,0.620306 H 4.3915228 A 0.61954476,0.61954476 0 0 0 5.0110676,19.380458 V 12.577414 A 5.0663035,5.0663035 0 0 1 9.99116,7.4918575 Z"/></svg>