<svg xmlns="http://www.w3.org/2000/svg" xmlns:svg="http://www.w3.org/2000/svg" id="WORKING_ICONS" width="20" height="20" data-name="WORKING ICONS" version="1.1" viewBox="0 0 20 20"><metadata id="metadata11"/><title id="title2">direction</title><path style="stroke-width:1.11111" id="path4" fill="#000" d="m 20,1.6666665 -1.756044,8.7333325 a 0.42958889,0.42958889 0 0 1 -0.821534,0.110134 l -1.0202,-3.4562332 A 0.39731111,0.39731111 0 0 0 15.690556,6.8731665 l -2.720245,2.295122 a 5.7979889,5.7979889 0 0 0 -1.85,4.6044445 l 0.0052,4.008522 A 0.55126667,0.55126667 0 0 1 10.5742,18.333333 H 9.4258 A 0.55126667,0.55126667 0 0 1 8.8745222,17.781299 l 0.00522,-4.008522 a 5.7979889,5.7979889 0 0 0 -1.85,-4.6044435 L 4.3094889,6.8731665 A 0.39731111,0.39731111 0 0 0 3.5978222,7.0538998 L 2.5775889,10.510122 A 0.42958889,0.42958889 0 0 1 1.7560444,10.399999 L 0,1.6666665 8.8941778,2.1662776 A 0.42953333,0.42953333 0 0 1 9.119667,2.9637998 L 5.8431,4.4639776 A 0.39733333,0.39733333 0 0 0 5.7651111,5.1940887 L 8.4956222,7.4983776 A 7.3784889,7.3784889 0 0 1 10,9.3238665 7.3784889,7.3784889 0 0 1 11.504378,7.4983776 L 14.234889,5.1940887 A 0.39733333,0.39733333 0 0 0 14.1569,4.4639776 L 10.880333,2.9637998 a 0.42953333,0.42953333 0 0 1 0.225489,-0.7975222 z"/></svg>