<svg xmlns="http://www.w3.org/2000/svg" xmlns:svg="http://www.w3.org/2000/svg" id="WORKING_ICONS" width="20" height="20" data-name="WORKING ICONS" version="1.1" viewBox="0 0 20 20"><metadata id="metadata11"/><title id="title2">direction</title><path style="stroke-width:1.33333" id="path4" fill="#000" d="m 17.734901,4.7690933 a 0.40628,0.40628 0 0 1 0.307134,0.1400934 l 0.865333,0.99812 a 0.40609333,0.40609333 0 0 1 -0.04492,0.5763466 L 16.115195,8.801587 a 7.2118667,7.2118667 0 0 0 -2.310747,5.72612 l 0.0063,4.810253 a 0.39484,0.39484 0 0 1 -0.394854,0.395387 h -1.342006 a 0.39542667,0.39542667 0 0 1 -0.394973,-0.39496 l -7.74e-4,-4.635 a 9.32172,9.32172 0 0 1 3.02592,-7.501547 l 2.769334,-2.337 a 0.40614667,0.40614667 0 0 1 0.26156,-0.09576 m 0,-0.2666667 A 0.67017333,0.67017333 0 0 0 17.301408,4.66108 l -2.769333,2.337 a 9.66876,9.66876 0 0 0 -3.1198,7.72592 v 4.614427 A 0.66162667,0.66162667 0 0 0 12.073888,20 h 1.34196 a 0.66154667,0.66154667 0 0 0 0.661533,-0.662413 l -0.0063,-4.810227 a 6.9576,6.9576 0 0 1 2.22,-5.5254 l 2.743226,-2.3144933 a 0.67277333,0.67277333 0 0 0 0.07447,-0.95484 l -0.865333,-0.99812 a 0.67126667,0.67126667 0 0 0 -0.508627,-0.23208 v 0 z M 10.921621,6.9980267 7.6449282,4.2329067 A 0.4768,0.4768 0 0 1 7.7385152,3.3567733 L 11.670408,1.55656 A 0.51544,0.51544 0 0 0 11.399821,0.5995333 L 0.72680818,0 2.8340615,10.48 a 0.51550667,0.51550667 0 0 0 0.98584,0.13216 l 1.22424,-4.14748 a 0.47677333,0.47677333 0 0 1 0.854,-0.21688 l 3.2642937,2.754147 a 6.9575867,6.9575867 0 0 1 2.2199998,5.525333 l -0.0063,4.810227 A 0.66152,0.66152 0 0 0 12.037755,20 h 1.34204 a 0.66161333,0.66161333 0 0 0 0.661533,-0.661627 V 14.724 A 9.6687733,9.6687733 0 0 0 10.921541,6.9980533 Z"/></svg>