<svg xmlns="http://www.w3.org/2000/svg" xmlns:svg="http://www.w3.org/2000/svg" id="WORKING_ICONS" width="20" height="20" data-name="WORKING ICONS" version="1.1" viewBox="0 0 20 20"><metadata id="metadata11"/><title id="title2">direction</title><path style="stroke-width:1.24853" id="path4" fill="#000" d="M 7.2650103,6.4989389 V 19.361928 A 0.37181176,0.37181176 0 0 1 6.8936106,19.73334 H 5.6387646 A 0.37181176,0.37181176 0 0 1 5.2673649,19.361928 V 6.4989389 H 7.2650103 M 7.514716,6.2492332 H 5.0176592 V 19.361928 a 0.62110542,0.62110542 0 0 0 0.6211054,0.621118 h 1.254846 A 0.62110542,0.62110542 0 0 0 7.514716,19.361928 Z M 7.4918555,9.994818 V 7.5133058 A 0.44647376,0.44647376 0 0 1 8.1691567,7.0421361 L 11.854601,8.719846 A 0.48266859,0.48266859 0 0 0 12.365774,7.9413388 L 6.2661876,0.016954 0.12093083,7.9413638 A 0.48266859,0.48266859 0 0 0 0.63210333,8.719871 L 4.3175719,7.0421361 A 0.4464363,0.4464363 0 0 1 4.9947987,7.5133058 V 9.994818 h -0.00228 l 0.00228,0.01373 a 7.5663193,7.5663193 0 0 0 7.5826133,7.477437 h 4.925532 v -0.0039 l 1.87675,0.0025 A 0.61944488,0.61944488 0 0 0 20,16.865065 V 15.608477 A 0.61954476,0.61954476 0 0 0 19.380456,14.988932 H 12.577412 A 5.0663035,5.0663035 0 0 1 7.4918555,10.008839 Z"/></svg>