<svg xmlns="http://www.w3.org/2000/svg" xmlns:svg="http://www.w3.org/2000/svg" id="WORKING_ICONS" width="20" height="20" data-name="WORKING ICONS" version="1.1" viewBox="0 0 20 20"><metadata id="metadata11"/><title id="title2">direction</title><path style="stroke-width:1.24853" id="path4" fill="#000" d="M 14.732642,6.4989373 V 19.3578 a 0.37595707,0.37595707 0 0 1 -0.375533,0.375558 H 13.11054 A 0.37595707,0.37595707 0 0 1 12.734995,19.3578 V 6.4989373 h 1.997647 M 14.982348,6.2492315 H 12.48529 V 19.3578 a 0.62525086,0.62525086 0 0 0 0.62525,0.625251 h 1.246544 A 0.62525086,0.62525086 0 0 0 14.982348,19.3578 Z m 0.02286,3.7455875 V 7.5133047 A 0.44643653,0.44643653 0 0 1 15.682435,7.0421348 L 19.367893,8.719846 A 0.48266885,0.48266885 0 0 0 19.879079,7.9413504 L 13.733819,0.016949 7.6342053,7.9413629 A 0.48266885,0.48266885 0 0 0 8.1453785,8.719871 L 11.830836,7.0421598 a 0.44647399,0.44647399 0 0 1 0.677302,0.4711699 v 2.4955353 a 5.0663062,5.0663062 0 0 1 -5.0855459,4.98007 H 0.61954456 A 0.61954509,0.61954509 0 0 0 -5.373984e-7,15.60848 v 1.256607 A 0.6194452,0.6194452 0 0 0 0.62030616,17.484545 l 1.87675144,-0.0024 v 0.0039 h 4.9255345 a 7.5663233,7.5663233 0 0 0 7.5826159,-7.477441 l 0.0023,-0.01373"/></svg>