<svg xmlns="http://www.w3.org/2000/svg" xmlns:svg="http://www.w3.org/2000/svg" id="WORKING_ICONS" width="20" height="20" data-name="WORKING ICONS" version="1.1" viewBox="0 0 20 20"><metadata id="metadata11"/><title id="title2">direction</title><path style="stroke-width:1.24853" id="path4" fill="#000" d="M 8.7426433,7.4918486 A 5.0663062,5.0663062 0 0 0 3.7625481,12.577407 v 6.803048 A 0.61954509,0.61954509 0 0 1 3.143003,20 H 1.886396 A 0.6194452,0.6194452 0 0 1 1.2669383,19.379693 l 0.00243,-1.876751 h -0.00388 v -4.925535 a 7.5663233,7.5663233 0 0 1 7.477442,-7.5826165 l 0.01373,-0.00228 v 0.00228 h 2.4815137 a 0.44643653,0.44643653 0 0 0 0.47117,-0.6772271 L 10.031633,0.63210537 a 0.48266885,0.48266885 0 0 1 0.778495,-0.5111853 L 18.73453,6.2661801 10.810116,12.365794 A 0.48266885,0.48266885 0 0 1 10.031608,11.854621 L 11.709319,8.169163 A 0.44647399,0.44647399 0 0 0 11.238149,7.4918611 H 8.7426393 Z"/></svg>