<svg xmlns="http://www.w3.org/2000/svg" xmlns:svg="http://www.w3.org/2000/svg" id="WORKING_ICONS" width="20" height="20" data-name="WORKING ICONS" version="1.1" viewBox="0 0 20 20"><metadata id="metadata11"/><title id="title2">direction</title><path style="stroke-width:1.33234" id="path4" fill="#000" d="M 0.681745,19.999972 A 0.66322701,0.66322701 0 0 1 0.018518,19.336718 L 0.0191442,2.71855 A 2.8012112,2.8012112 0 0 1 0.7614324,0.7727297 2.5705559,2.5705559 0 0 1 2.6721189,0.0148264 l 0.3519517,-0.00266 a 5.9506968,5.9506968 0 0 1 4.5096614,1.653784 l 7.184126,6.1408891 0.005,-0.0059 a 0.47640588,0.47640588 0 0 0 0.850035,-0.229243 l 1.162469,-4.1618669 a 0.51509712,0.51509712 0 0 1 0.986893,0.1175126 L 19.981482,13.967583 9.308775,13.525125 A 0.51505715,0.51505715 0 0 1 9.0244,12.572873 l 3.902126,-1.856367 A 0.46522752,0.46522752 0 0 0 13.036508,9.8747245 L 5.8481448,3.728839 A 3.4208972,3.4208972 0 0 0 3.0559536,2.6762881 l -0.3727763,0.00846 V 19.336771 a 0.66322701,0.66322701 0 0 1 -0.663227,0.663227 H 0.681745 Z"/></svg>