<svg xmlns="http://www.w3.org/2000/svg" xmlns:svg="http://www.w3.org/2000/svg" id="WORKING_ICONS" width="20" height="20" data-name="WORKING ICONS" version="1.1" viewBox="0 0 20 20"><metadata id="metadata11"/><title id="title2">direction</title><path style="stroke-width:1.25" id="path4" fill="#000" d="M 15.628625,0.24999999 A 0.3718,0.3718 0 0 1 16,0.62139999 V 19.3786 A 0.3718,0.3718 0 0 1 15.628625,19.75 h -1.25725 A 0.3718,0.3718 0 0 1 14,19.3786 V 0.62139999 a 0.3718,0.3718 0 0 1 0.371375,-0.3714 h 1.25725 M 15.628625,0 h -1.25725 A 0.6213875,0.6213875 0 0 0 13.75,0.62139999 V 19.3786 A 0.6213875,0.6213875 0 0 0 14.371375,20 h 1.25725 A 0.6213875,0.6213875 0 0 0 16.25,19.3786 V 0.62139999 A 0.6213875,0.6213875 0 0 0 15.628625,0 Z M 13.307575,7.810675 10.23575,5.21835 a 0.447,0.447 0 0 1 0.08774,-0.821375 l 3.686138,-1.6877 A 0.483225,0.483225 0 0 0 13.75595,1.8120625 L 3.75,1.25 5.72555,11.075 a 0.4832875,0.4832875 0 0 0 0.924225,0.1239 L 7.7975,7.3106375 A 0.446975,0.446975 0 0 1 8.598125,7.1073125 L 11.65835,9.689325 a 6.5227375,6.5227375 0 0 1 2.08125,5.18 l -0.0059,4.509587 A 0.620175,0.620175 0 0 0 14.354025,20 h 1.258162 a 0.6202625,0.6202625 0 0 0 0.620188,-0.620275 V 15.05375 a 9.0644625,9.0644625 0 0 0 -2.9248,-7.243075 z"/></svg>