<svg xmlns="http://www.w3.org/2000/svg" xmlns:svg="http://www.w3.org/2000/svg" id="WORKING_ICONS" width="20" height="20" data-name="WORKING ICONS" version="1.1" viewBox="0 0 20 20"><metadata id="metadata11"/><title id="title2">direction</title><path style="stroke-width:1.25" id="path4" fill="#000" d="M 5.628625,0.25 A 0.3718,0.3718 0 0 1 6,0.6214 V 19.3786 A 0.3718,0.3718 0 0 1 5.628625,19.75 H 4.371375 A 0.3718,0.3718 0 0 1 4,19.3786 V 0.6214 A 0.3718,0.3718 0 0 1 4.371375,0.25 h 1.25725 m 0,-0.25 H 4.371375 A 0.6213875,0.6213875 0 0 0 3.75,0.6214 V 19.3786 A 0.6213875,0.6213875 0 0 0 4.371375,20 h 1.25725 A 0.6213875,0.6213875 0 0 0 6.25,19.3786 V 0.6214 A 0.6213875,0.6213875 0 0 0 5.628625,0 Z m -1.861,15.05375 v 4.326025 A 0.6202625,0.6202625 0 0 0 4.3878125,20 H 5.645975 a 0.620175,0.620175 0 0 0 0.6201875,-0.621038 l -0.00587,-4.509587 a 6.5227375,6.5227375 0 0 1 2.0812495,-5.18 l 3.060225,-2.5820125 a 0.446975,0.446975 0 0 1 0.800625,0.203325 L 13.35015,11.198937 A 0.4832875,0.4832875 0 0 0 14.27445,11.075 L 16.25,1.25 6.24405,1.8120625 A 0.483225,0.483225 0 0 0 5.990375,2.709275 l 3.686137,1.6877 A 0.447,0.447 0 0 1 9.76425,5.21835 L 6.692425,7.810675 a 9.0644625,9.0644625 0 0 0 -2.9248,7.243075 z"/></svg>