<svg xmlns="http://www.w3.org/2000/svg" xmlns:svg="http://www.w3.org/2000/svg" id="WORKING_ICONS" width="20" height="20" data-name="WORKING ICONS" version="1.1" viewBox="0 0 20 20"><metadata id="metadata11"/><title id="title2">direction</title><path style="stroke-width:1.24853" id="path4" fill="#000" d="m 11.243339,4.9925166 0.01373,0.00228 a 7.5663193,7.5663193 0 0 1 7.477437,7.5826124 v 4.925532 h -0.0039 l 0.0025,1.87675 a 0.61944488,0.61944488 0 0 1 -0.619519,0.620306 H 16.856998 A 0.61954476,0.61954476 0 0 1 16.237453,19.380458 V 12.577414 A 5.0663035,5.0663035 0 0 0 11.257348,7.4918582 H 8.761827 A 0.44647376,0.44647376 0 0 0 8.2906573,8.1691594 L 9.9683674,11.854603 A 0.48266859,0.48266859 0 0 1 9.18986,12.365776 L 1.2654752,6.2661903 9.189885,0.12093346 a 0.48266859,0.48266859 0 0 1 0.7785074,0.5111725 L 8.2906573,4.3175746 A 0.4464363,0.4464363 0 0 0 8.761827,4.9948014 h 2.481512"/></svg>