<svg xmlns="http://www.w3.org/2000/svg" xmlns:svg="http://www.w3.org/2000/svg" id="WORKING_ICONS" width="20" height="20" data-name="WORKING ICONS" version="1.1" viewBox="0 0 20 20"><metadata id="metadata11"/><title id="title2">direction</title><path style="stroke-width:1.33333" id="path4" fill="#000" d="M 6.4717127,6.9980533 9.7483257,4.2329067 A 0.4768,0.4768 0 0 0 9.6547397,3.3567733 L 5.7228595,1.55656 A 0.51544,0.51544 0 0 1 5.9934462,0.5995333 L 16.66646,0 14.559206,10.48 a 0.51550667,0.51550667 0 0 1 -0.98584,0.13216 l -1.22424,-4.14748 a 0.47677333,0.47677333 0 0 0 -0.854,-0.21688 L 8.2308327,9.001947 A 6.9575867,6.9575867 0 0 0 6.0108328,14.52728 l 0.00627,4.810227 A 0.66152,0.66152 0 0 1 5.3554995,20 h -1.34204 A 0.66161333,0.66161333 0 0 1 3.3519262,19.338373 V 14.724 A 9.66876,9.66876 0 0 1 6.4717127,6.9980533 Z"/></svg>