<svg xmlns="http://www.w3.org/2000/svg" xmlns:svg="http://www.w3.org/2000/svg" id="WORKING_ICONS" width="20" height="20" data-name="WORKING ICONS" version="1.1" viewBox="0 0 20 20"><metadata id="metadata11"/><title id="title2">direction</title><path style="stroke-width:1.33333" id="path4" fill="#000" d="m 16.648073,14.724 v 4.614427 A 0.66161333,0.66161333 0 0 1 15.98654,20 H 14.6445 a 0.66152,0.66152 0 0 1 -0.661533,-0.66244 l 0.0063,-4.810227 A 6.9575867,6.9575867 0 0 0 11.769267,9.002 L 8.5049269,6.2478 a 0.47677333,0.47677333 0 0 0 -0.854,0.21688 l -1.22428,4.147467 A 0.51550667,0.51550667 0 0 1 5.4407935,10.48 L 3.3335402,0 14.006553,0.5995333 A 0.51544,0.51544 0 0 1 14.27714,1.55656 L 10.34526,3.3567733 A 0.4768,0.4768 0 0 0 10.25167,4.2329067 L 13.528287,6.99804 a 9.66876,9.66876 0 0 1 3.119786,7.72596 z"/></svg>