<svg xmlns="http://www.w3.org/2000/svg" xmlns:svg="http://www.w3.org/2000/svg" id="WORKING_ICONS" width="20" height="20" data-name="WORKING ICONS" version="1.1" viewBox="0 0 20 20"><metadata id="metadata11"/><title id="title2">direction</title><path style="stroke-width:1.53314" id="path4" fill="#000" d="m 4.6342106,9.7711173 a 0.27410998,0.27410998 0 0 0 0.4158487,0.2892417 l 2.262745,-1.0300697 a 0.29635583,0.29635583 0 0 1 0.3138485,0.477986 L 3.8676409,14.370535 0.10862861,9.5081993 a 0.29635583,0.29635583 0 0 1 0.3138489,-0.477987 L 2.6853912,10.060282 A 0.27406399,0.27406399 0 0 0 3.1010713,9.7711173 v -0.0031 A 8.461212,8.461212 0 0 1 7.3216965,2.4616914 L 8.0882658,3.7882096 A 6.9275821,6.9275821 0 0 0 4.6342106,9.7680513 Z M 14.98514,3.7927783 a 6.9289926,6.9289926 0 0 1 3.447325,5.975273 h 1.533139 A 8.4664553,8.4664553 0 0 0 15.753212,2.4661682 l -0.0022,-9.2e-5 A 0.27409465,0.27409465 0 0 1 15.708398,1.9613054 L 17.73182,0.51672019 a 0.2963865,0.2963865 0 0 0 -0.257046,-0.5108267 l -6.09035,0.8243077 2.331338,5.68658211 a 0.29637116,0.29637116 0 0 0 0.57091,-0.03284 L 14.526026,4.0092269 A 0.27512185,0.27512185 0 0 1 14.98514,3.7927017 Z m 0.759548,13.2822147 a 0.27410998,0.27410998 0 0 1 0.458408,0.215452 l 0.239323,2.474671 a 0.29635583,0.29635583 0 0 0 0.570865,0.03282 l 2.331399,-5.686506 -6.09032,-0.824307 a 0.29635583,0.29635583 0 0 0 -0.257015,0.510796 l 2.023468,1.4446 a 0.27410998,0.27410998 0 0 1 -0.04264,0.504756 l 0.0055,-0.0039 a 7.0169334,7.0169334 0 0 1 -6.9021932,0 l -0.7681032,1.326519 a 8.4390428,8.4390428 0 0 0 8.4382614,0 z"/></svg>