<svg xmlns="http://www.w3.org/2000/svg" xmlns:svg="http://www.w3.org/2000/svg" id="WORKING_ICONS" width="20" height="20" data-name="WORKING ICONS" version="1.1" viewBox="0 0 20 20"><metadata id="metadata11"/><title id="title2">direction</title><path style="stroke-width:1.33252" id="path4" fill="#000" d="M 5.3300783,2.9376459 A 5.0635745,5.0635745 0 1 1 0.2665038,8.00122 5.0692777,5.0692777 0 0 1 5.3300783,2.9376459 m 0,9.3276371 A 4.2640627,4.2640627 0 1 0 1.0660156,8.00122 4.2688865,4.2688865 0 0 0 5.3300783,12.265283 m 0,-9.594141 A 5.3300784,5.3300784 0 1 0 10.660157,8.00122 5.3361814,5.3361814 0 0 0 5.3300783,2.671142 Z m 0,9.327637 A 3.9975588,3.9975588 0 1 1 9.3276369,8.00122 4.0019295,4.0019295 0 0 1 5.3300783,11.998779 Z M 15.774061,4.7340956 a 0.25757604,0.25757604 0 0 0 -0.41544,0.27278 L 16.253914,6.973528 A 0.23826783,0.23826783 0 0 1 16.002441,7.334961 H 9.3276369 V 8.00122 A 3.9974789,3.9974789 0 0 1 5.3300783,11.998779 H 4.6638185 v 5.330079 H 5.9963381 V 13.290311 A 5.3343425,5.3343425 0 0 0 10.619169,8.66748 h 5.383272 a 0.23826783,0.23826783 0 0 1 0.251473,0.361433 l -0.895293,1.966652 a 0.25757604,0.25757604 0 0 0 0.41544,0.27278 L 20,8.00122 Z"/></svg>