<svg xmlns="http://www.w3.org/2000/svg" xmlns:svg="http://www.w3.org/2000/svg" id="WORKING_ICONS" width="20" height="20" data-name="WORKING ICONS" version="1.1" viewBox="0 0 20 20"><metadata id="metadata11"/><title id="title2">direction</title><path style="stroke-width:1.33333" id="path4" fill="#000" d="M 14.666667,2.9333332 A 5.0666667,5.0666667 0 1 1 9.6,7.9999995 5.0723733,5.0723733 0 0 1 14.666667,2.9333332 m 0,9.3333338 A 4.2666667,4.2666667 0 1 0 10.4,7.9999995 4.2714933,4.2714933 0 0 0 14.666667,12.266667 m 0,-9.6000005 A 5.3333333,5.3333333 0 1 0 20,7.9999995 5.33944,5.33944 0 0 0 14.666667,2.6666665 Z m 0,9.3333335 a 4,4 0 1 1 4,-4.0000005 4.0043733,4.0043733 0 0 1 -4,4.0000005 z m 3.77148,-7.7708268 A 5.3753333,5.3753333 0 0 0 17.71548,3.6230532 5.4373333,5.4373333 0 0 0 10.895813,4.2285198 5.2912267,5.2912267 0 0 0 9.374347,7.3333335 H 4 A 0.23838667,0.23838667 0 0 1 3.7484533,6.9716795 l 0.89584,-1.967853 A 0.25773333,0.25773333 0 0 0 4.2286,4.7308798 L 0,7.9999995 4.2286,11.26912 A 0.25773333,0.25773333 0 0 0 4.6442933,10.996174 L 3.7484533,9.0283195 A 0.23838667,0.23838667 0 0 1 4,8.6666665 h 6.666667 v -0.666667 a 3.9741733,3.9741733 0 0 1 1.17188,-2.828773 4.0811733,4.0811733 0 0 1 5.113933,-0.4544267 4.0299733,4.0299733 0 0 1 0.542973,0.45508 A 3.99968,3.99968 0 0 1 14.666667,12 H 14 v 5.333334 h 1.333333 V 13.29232 a 5.33384,5.33384 0 0 0 3.104814,-9.0631468 z"/></svg>