<svg xmlns="http://www.w3.org/2000/svg" xmlns:svg="http://www.w3.org/2000/svg" id="WORKING_ICONS" width="20" height="20" data-name="WORKING ICONS" version="1.1" viewBox="0 0 20 20"><metadata id="metadata11"/><title id="title2">direction</title><path style="stroke-width:1.66667" id="path4" fill="#000" d="M 6.6668087,0.3333333 A 6.3333333,6.3333333 0 1 1 0.333475,6.666667 6.3405,6.3405 0 0 1 6.6668087,0.3333333 M 6.6668087,12 A 5.3333333,5.3333333 0 1 0 1.333475,6.666667 5.33935,5.33935 0 0 0 6.6668087,12 m 0,-12 A 6.6666667,6.6666667 0 1 0 13.333475,6.666667 6.6743,6.6743 0 0 0 6.6668087,0 Z m 0,11.666667 a 5,5 0 1 1 5.0000003,-5 5.0054667,5.0054667 0 0 1 -5.0000003,5 z M 19.151809,13.3729 A 0.32213333,0.32213333 0 0 0 18.543192,13.246767 L 17.595659,15.778 a 0.29805,0.29805 0 0 1 -0.5421,0.09725 l -3e-4,3e-4 -6.2621,-6.2621 -0.5892,0.5892 a 4.9670333,4.9670333 0 0 1 -3.5351503,1.464017 h -0.833334 v 6.666666 h 1.666667 v -5.051266 a 6.5936833,6.5936833 0 0 0 3.2544003,-1.34765 l 5.121867,5.12125 a 0.29735,0.29735 0 0 1 -0.09857,0.54 l -2.53115,0.947666 a 0.32216667,0.32216667 0 0 0 0.126133,0.608717 L 19.999859,20 Z"/></svg>