<svg xmlns="http://www.w3.org/2000/svg" xmlns:svg="http://www.w3.org/2000/svg" id="WORKING_ICONS" width="20" height="20" data-name="WORKING ICONS" version="1.1" viewBox="0 0 20 20"><metadata id="metadata11"/><title id="title2">direction</title><path style="stroke-width:1.33008" id="path4" fill="#000" d="M 7.3016379,5.6628325 A 5.0543072,5.0543072 0 1 1 2.2473311,10.71714 5.0599999,5.0599999 0 0 1 7.3016379,5.6628325 m 0,9.3105655 A 4.2562587,4.2562587 0 1 0 3.0453796,10.71714 4.2610736,4.2610736 0 0 0 7.3016379,14.973398 m 0,-9.5765817 A 5.3203234,5.3203234 0 1 0 12.621962,10.71714 5.3264151,5.3264151 0 0 0 7.3016379,5.3968163 Z m 0,9.3105657 A 3.9902425,3.9902425 0 1 1 11.291881,10.71714 3.9946052,3.9946052 0 0 1 7.3016379,14.707382 Z M 12.729951,0.6767185 A 0.25707803,0.25707803 0 0 0 12.62929,1.1624242 l 2.020047,0.7562839 a 0.23779185,0.23779185 0 0 1 0.07761,0.4325423 l 7.9e-5,7.98e-5 L 9.6526479,7.425708 10.122859,7.895919 A 3.9899233,3.9899233 0 0 1 7.3016249,14.707382 H 6.6365845 V 20 H 7.9666649 V 15.99655 A 5.3219594,5.3219594 0 0 0 11.504893,7.454292 l 4.162581,-4.1625414 a 0.23779185,0.23779185 0 0 1 0.432543,0.07761 l 0.756151,2.020047 A 0.25713123,0.25713123 0 0 0 17.341953,5.2886674 L 18.018685,0 Z"/></svg>