<svg xmlns="http://www.w3.org/2000/svg" xmlns:svg="http://www.w3.org/2000/svg" id="WORKING_ICONS" width="20" height="20" data-name="WORKING ICONS" version="1.1" viewBox="0 0 20 20"><metadata id="metadata11"/><title id="title2">direction</title><path style="stroke-width:1.25032" id="path4" fill="#000" d="M 9.9999967,7.7468218 A 4.7512324,4.7512324 0 1 1 5.2487646,12.498054 4.7565712,4.7565712 0 0 1 9.9999967,7.7468218 m 0,8.7522702 a 4.0010378,4.0010378 0 1 0 -4.0010376,-4.001038 4.0055764,4.0055764 0 0 0 4.0010376,4.001038 m 0,-9.002335 A 5.0012972,5.0012972 0 1 0 15.001294,12.498054 5.0070237,5.0070237 0 0 0 9.9999967,7.496757 Z m 0,8.75227 A 3.7509729,3.7509729 0 1 1 13.75097,12.498054 3.755074,3.755074 0 0 1 9.9999967,16.249027 Z M 13.539128,8.963812 A 4.9654754,4.9654754 0 0 0 10.625159,7.5352169 v -3.784244 a 0.22357049,0.22357049 0 0 1 0.339138,-0.2359612 l 1.845341,0.8400554 A 0.24167518,0.24167518 0 0 0 13.065592,3.9652535 L 9.9999967,0 6.9344018,3.965266 a 0.24168769,0.24168769 0 0 0 0.2559539,0.3898136 l 1.845479,-0.8400554 a 0.22354548,0.22354548 0 0 1 0.339,0.2359487 V 8.747081 h 0.625162 a 3.750973,3.750973 0 1 1 0,7.501946 H 9.3748347 V 20 h 1.2503243 v -2.539109 a 5.0022475,5.0022475 0 0 0 2.913969,-8.497079 z"/></svg>