<svg xmlns="http://www.w3.org/2000/svg" xmlns:svg="http://www.w3.org/2000/svg" id="WORKING_ICONS" width="20" height="20" data-name="WORKING ICONS" version="1.1" viewBox="0 0 20 20"><metadata id="metadata11"/><title id="title2">direction</title><path style="stroke-width:1.33235" id="path4" fill="#000" d="m 17.980101,19.999959 a 0.66322994,0.66322994 0 0 1 -0.66323,-0.66323 V 2.6846325 l -0.372764,-0.00843 A 3.4209123,3.4209123 0 0 0 14.151903,3.7287543 L 6.9635218,9.8746527 a 0.46522958,0.46522958 0 0 0 0.1099455,0.8417383 l 3.9021427,1.856375 a 0.51505943,0.51505943 0 0 1 -0.284376,0.952257 L 0.0184535,13.967483 2.2776908,3.5271966 A 0.5150994,0.5150994 0 0 1 3.2645883,3.4096834 l 1.1624744,4.1618853 a 0.47640798,0.47640798 0 0 0 0.8500385,0.229243 l 0.00504,0.006 7.1841578,-6.1409158 a 5.950723,5.950723 0 0 1 4.509695,-1.65372468 l 0.351953,0.00266 a 2.5705673,2.5705673 0 0 1 1.910695,0.7579066 2.8012235,2.8012235 0 0 1 0.742292,1.94582888 l 6.12e-4,16.6181743 a 0.66322994,0.66322994 0 0 1 -0.66323,0.663257 z"/></svg>