<svg xmlns="http://www.w3.org/2000/svg" xmlns:svg="http://www.w3.org/2000/svg" id="WORKING_ICONS" width="20" height="20" data-name="WORKING ICONS" version="1.1" viewBox="0 0 20 20"><metadata id="metadata11"/><title id="title2">direction</title><path style="stroke-width:1.33333" id="path4" fill="#000" d="M 6.4717198,6.9980533 9.7483327,4.2329067 A 0.4768,0.4768 0 0 0 9.6547467,3.3567733 L 5.7228532,1.55656 A 0.51544,0.51544 0 0 1 5.9934398,0.5995333 L 16.666453,0 14.5592,10.48 a 0.51550667,0.51550667 0 0 1 -0.98584,0.13216 L 12.34912,6.46468 A 0.47677333,0.47677333 0 0 0 11.49512,6.2478 L 8.2308265,9.001947 a 6.9575867,6.9575867 0 0 0 -2.22,5.525333 l 0.00627,4.810227 A 0.66152,0.66152 0 0 1 5.3555065,20 h -1.34204 A 0.66161333,0.66161333 0 0 1 3.3519332,19.338373 V 14.724 A 9.66876,9.66876 0 0 1 6.4717198,6.9980533 Z"/></svg>