<svg xmlns="http://www.w3.org/2000/svg" xmlns:svg="http://www.w3.org/2000/svg" id="WORKING_ICONS" width="20" height="20" data-name="WORKING ICONS" version="1.1" viewBox="0 0 20 20"><metadata id="metadata11"/><title id="title2">direction</title><path style="stroke-width:1.11162" id="path4" fill="#000" d="M 15.451059,12.94916 10.000012,20 4.5489541,12.94916 a 0.4297426,0.4297426 0 0 1 0.455121,-0.693142 l 3.2813353,1.493744 a 0.39748328,0.39748328 0 0 0 0.602978,-0.419504 V 6.6697422 A 0.39748328,0.39748328 0 0 0 8.2854215,6.2502376 L 5.0040751,7.7439819 A 0.4297426,0.4297426 0 0 1 4.5489541,7.0508401 L 10.000012,0 15.45107,7.0508401 A 0.42975372,0.42975372 0 0 1 14.995949,7.7439819 L 11.714591,6.2502376 a 0.39748328,0.39748328 0 0 0 -0.602967,0.4195046 v 6.6605158 a 0.39748328,0.39748328 0 0 0 0.602967,0.419504 l 3.281335,-1.493744 a 0.42975372,0.42975372 0 0 1 0.455133,0.693142 z"/></svg>